HIERARCHY
ROOT Hips
{
	OFFSET 0.000000 0.000000 0.000000 
	CHANNELS 6 Xposition Yposition Zposition Zrotation Yrotation Xrotation
	JOINT LeftUpLeg
	{
		OFFSET 1.363060 -1.794630 0.839290 
		CHANNELS 3 Zrotation Yrotation Xrotation
		JOINT LeftLeg
		{
			OFFSET 2.448110 -6.726130 0.000000 
			CHANNELS 3 Zrotation Yrotation Xrotation
			JOINT LeftFoot
			{
				OFFSET 2.562200 -7.039590 0.000000 
				CHANNELS 3 Zrotation Yrotation Xrotation
				JOINT LeftToeBase
				{
					OFFSET 0.157640 -0.433110 2.322550 
					CHANNELS 3 Zrotation Yrotation Xrotation
					End Site
					{
						OFFSET 0.000000 0.000000 0.000000 
					}
				}
			}
		}
	}
	JOINT RightUpLeg
	{
		OFFSET -1.305520 -1.794630 0.839290 
		CHANNELS 3 Zrotation Yrotation Xrotation
		JOINT RightLeg
		{
			OFFSET -2.542530 -6.985550 0.000000 
			CHANNELS 3 Zrotation Yrotation Xrotation
			JOINT RightFoot
			{
				OFFSET -2.568260 -7.056230 0.000000 
				CHANNELS 3 Zrotation Yrotation Xrotation
				JOINT RightToeBase
				{
					OFFSET -0.164730 -0.452590 2.363150 
					CHANNELS 3 Zrotation Yrotation Xrotation
					End Site
					{
						OFFSET 0.000000 0.000000 0.000000 
					}
				}
			}
		}
	}
	JOINT Spine
	{
		OFFSET 0.028270 2.035590 -0.193380 
		CHANNELS 3 Zrotation Yrotation Xrotation
		JOINT Spine1
		{
			OFFSET 0.056720 2.048850 -0.042750 
			CHANNELS 3 Zrotation Yrotation Xrotation
			JOINT Neck1
			{
				OFFSET -0.054170 1.746240 0.172020 
				CHANNELS 3 Zrotation Yrotation Xrotation
				JOINT Head
				{
					OFFSET 0.104070 1.761360 -0.123970 
					CHANNELS 3 Zrotation Yrotation Xrotation
					End Site
					{
						OFFSET 0.000000 0.000000 0.000000 
					}
				}
			}
			JOINT LeftArm
			{
				OFFSET 3.362410 1.200890 -0.311210 
				CHANNELS 3 Zrotation Yrotation Xrotation
				JOINT LeftForeArm
				{
					OFFSET 4.983000 -0.000000 -0.000000 
					CHANNELS 3 Zrotation Yrotation Xrotation
					JOINT LeftHand
					{
						OFFSET 3.483560 -0.000000 -0.000000 
						CHANNELS 3 Zrotation Yrotation Xrotation
						JOINT LeftHandIndex1
						{
							OFFSET 0.715260 -0.000000 -0.000000 
							CHANNELS 3 Zrotation Yrotation Xrotation
							End Site
							{
								OFFSET 0.000000 0.000000 0.000000 
							}
						}
					}
				}
			}
			JOINT RightArm
			{
				OFFSET -3.136600 1.374050 -0.404650 
				CHANNELS 3 Zrotation Yrotation Xrotation
				JOINT RightForeArm
				{
					OFFSET -5.241900 -0.000000 -0.000000 
					CHANNELS 3 Zrotation Yrotation Xrotation
					JOINT RightHand
					{
						OFFSET -3.444170 -0.000000 -0.000000 
						CHANNELS 3 Zrotation Yrotation Xrotation
						JOINT RightHandIndex1
						{
							OFFSET -0.622530 -0.000000 -0.000000 
							CHANNELS 3 Zrotation Yrotation Xrotation
							End Site
							{
								OFFSET 0.000000 0.000000 0.000000 
							}
						}
					}
				}
			}
		}
	}
}
MOTION
Frames: 6
Frame Time: 0.041667
0.121513 18.159453 0.655800 -3.675416 -19.237186 0.164419 -11.751059 -11.618327 -8.874066 0.394422 6.336959 22.057671 -0.633175 3.387925 -1.198226 0.026300 1.047900 2.880600 14.828591 29.399177 -12.926721 -4.204438 -9.523123 34.400767 4.068630 -14.936035 -0.009890 -0.060100 1.581700 -4.351000 -4.739908 -2.045728 12.720564 3.298892 -0.461915 -11.179640 8.565441 -6.808370 22.617376 3.610800 -3.060700 7.419600 -79.330163 -5.764868 25.531215 18.451085 -27.443044 -5.026457 -0.432103 -1.646552 -7.354292 -7.125000 0.000000 0.000000 71.256120 -9.835697 35.030395 -19.747392 26.619427 -6.375215 0.902197 1.028815 3.267859 7.125000 0.000000 0.000000 
0.120833 18.157706 0.678219 -3.756962 -19.333258 0.245691 -11.705748 -11.587345 -8.895614 0.410066 6.367910 22.146651 -0.633118 3.403760 -1.361340 0.022700 0.972100 2.672200 15.296091 29.380235 -12.981638 -4.026747 -9.310769 33.746121 3.811042 -14.042062 -0.168531 -0.104400 2.083600 -5.736800 -4.722064 -2.085593 12.780009 3.253092 -0.490626 -11.130892 8.448364 -6.755305 22.679860 3.567000 -3.033300 7.462400 -79.348322 -5.872043 25.806627 18.556352 -27.573698 -5.084354 -0.425386 -1.638528 -7.322870 -7.125000 0.000000 0.000000 71.325923 -9.764698 34.858835 -19.809708 26.686107 -6.408176 0.868307 1.101603 3.068395 7.125000 0.000000 0.000000 
0.118407 18.155959 0.700542 -3.822061 -19.383884 0.372199 -11.658573 -11.612833 -8.983770 0.440116 6.426235 22.323019 -0.598399 3.298588 -1.545906 0.026700 1.055100 2.900600 15.733372 29.357983 -13.068004 -3.850060 -9.094893 33.078195 3.544840 -13.126590 -0.242022 -0.133100 2.351300 -6.477500 -4.677877 -2.132231 12.753365 3.206452 -0.519408 -11.083332 8.377660 -6.731846 22.666028 3.543200 -3.022700 7.475100 -79.391054 -5.950713 26.106257 18.615288 -27.643425 -5.117456 -0.423783 -1.623275 -7.211245 -7.125000 0.000000 0.000000 71.364083 -9.725578 34.680272 -19.890658 26.783689 -6.461024 0.841754 1.126922 2.881288 7.125000 0.000000 0.000000 
0.114913 18.151689 0.726262 -3.924502 -19.512038 0.458887 -11.597487 -11.649171 -9.005911 0.479667 6.505341 22.556470 -0.549943 3.154610 -1.810514 0.043900 1.352100 3.718100 16.257798 29.446346 -12.983375 -3.675543 -8.873156 32.415957 3.259715 -12.148226 -0.400000 -0.174000 2.686700 -7.407700 -4.455926 -2.159001 12.568577 3.163210 -0.525601 -11.114164 8.346969 -6.739200 22.550874 3.548100 -3.037500 7.420800 -79.511608 -5.796809 26.476134 18.710004 -27.761493 -5.170146 -0.421848 -1.617970 -7.167912 -7.125000 0.000000 0.000000 71.293691 -9.859775 34.609725 -19.942375 26.858560 -6.492369 0.838314 1.144580 2.750277 7.125000 0.000000 0.000000 
0.111031 18.141692 0.747517 -4.123191 -19.716029 0.551149 -11.443354 -11.658464 -9.029516 0.517655 6.586917 22.781343 -0.502980 3.020173 -2.050884 0.070300 1.710700 4.706800 16.907545 29.536426 -12.886280 -3.509365 -8.654069 31.781696 2.931541 -11.032796 -0.437710 -0.237500 3.136500 -8.659000 -4.126685 -2.173816 12.363476 3.101641 -0.523241 -11.199608 8.277731 -6.718628 22.512993 3.542200 -3.039800 7.378100 -79.641915 -5.614427 26.728301 18.787909 -27.859417 -5.214267 -0.412539 -1.617007 -7.138021 -7.125000 0.000000 0.000000 71.226780 -10.030530 34.588178 -19.956317 26.892199 -6.502975 0.848350 1.134371 2.684911 7.125000 0.000000 0.000000 
0.107343 18.133637 0.770422 -4.231310 -19.864664 0.617629 -11.384614 -11.622375 -9.068849 0.557767 6.663047 23.010341 -0.442779 2.832188 -2.261852 0.086200 1.893900 5.212600 17.448283 29.512842 -12.868803 -3.349902 -8.447767 31.184412 2.543077 -9.720929 -0.386215 -0.297000 3.504300 -9.686000 -3.967611 -2.194411 12.319216 3.052185 -0.533508 -11.206404 8.275788 -6.690377 22.624086 3.542300 -3.022900 7.414300 -79.710454 -5.631150 26.920731 18.756812 -27.816253 -5.198682 -0.411620 -1.607885 -6.872122 -7.125000 0.000000 0.000000 71.238850 -10.073419 34.509522 -19.946086 26.883603 -6.498532 0.851404 1.117871 2.674133 7.125000 0.000000 0.000000 
